<?xml version="1.0" standalone="no"?>
<!DOCTYPE svg PUBLIC "-//W3C//DTD SVG 20010904//EN"
 "http://www.w3.org/TR/2001/REC-SVG-20010904/DTD/svg10.dtd">
<svg version="1.0" xmlns="http://www.w3.org/2000/svg"
 width="256.000000pt" height="256.000000pt" viewBox="0 0 256.000000 256.000000"
 preserveAspectRatio="xMidYMid meet">
<metadata>
Created by potrace 1.14, written by Peter Selinger 2001-2017
</metadata>
<g transform="translate(0.000000,256.000000) scale(0.100000,-0.100000)"
fill="#000000" stroke="none">
<path d="M245 2229 c-37 -21 -55 -53 -55 -97 0 -35 6 -49 29 -73 31 -30 34
-31 159 -32 55 0 63 -2 67 -21 3 -12 19 -104 35 -206 17 -102 33 -196 35 -210
3 -14 32 -189 65 -389 34 -201 66 -376 73 -390 7 -13 24 -33 39 -44 27 -20 42
-20 615 -20 323 1 603 2 622 2 49 1 99 56 96 104 -4 47 -20 74 -55 92 -25 13
-108 15 -579 15 -302 0 -552 3 -554 8 -3 4 -7 28 -11 53 l-7 45 609 1 c334 0
620 3 634 6 36 9 65 53 73 107 3 25 10 70 15 100 6 30 12 75 15 100 6 53 15
115 20 150 13 78 25 162 30 210 4 30 8 57 10 60 1 3 6 35 9 71 8 77 -2 111
-41 136 -25 17 -72 18 -775 19 -411 0 -751 3 -754 7 -3 3 -12 39 -20 79 -10
52 -21 79 -39 98 -25 24 -29 25 -183 28 -103 1 -164 -2 -177 -9z m821 -522 l1
-107 -168 0 -168 0 -7 38 c-3 20 -12 67 -18 104 l-13 67 31 3 c17 2 101 3 186
2 l155 -1 1 -106z m425 93 c0 -8 1 -57 2 -108 l2 -92 -161 0 -161 0 0 104 0
105 31 3 c17 2 88 3 159 3 106 0 127 -2 128 -15z m513 -11 c-1 -26 -12 -111
-19 -144 -2 -11 -4 -26 -4 -32 -1 -10 -46 -13 -191 -13 l-190 0 0 104 c0 61 4
106 10 108 6 2 97 3 203 2 l192 0 -1 -25z m-958 -298 c20 -1 21 -6 20 -103
l-1 -103 -141 -3 -142 -3 -7 47 c-3 25 -8 53 -10 62 -18 98 -18 100 7 104 19
2 206 2 274 -1z m429 0 c19 -1 20 -7 18 -98 -1 -54 -2 -101 -2 -105 -1 -5 -72
-8 -159 -8 l-159 0 0 104 c0 100 1 105 21 108 18 3 222 2 281 -1z m479 -32 c0
-44 -15 -162 -21 -171 -2 -5 -78 -8 -169 -8 l-164 0 0 104 c0 61 4 106 10 108
5 2 85 3 177 2 l168 -1 -1 -34z"/>
<path d="M830 620 c-50 -31 -71 -64 -77 -124 -18 -171 197 -242 290 -96 40 64
19 166 -44 211 -44 31 -125 35 -169 9z"/>
<path d="M1805 626 c-93 -42 -125 -151 -69 -235 85 -129 283 -69 287 86 3 115
-115 195 -218 149z"/>
</g>
</svg>
